<svg xmlns="http://www.w3.org/2000/svg" viewBox="0 0 86.67 52.57"><defs><style>.cls-1{fill:#00247d;}</style></defs><title>wc-logo</title><g id="Layer_2" data-name="Layer 2"><g id="Layer_1-2" data-name="Layer 1"><path class="cls-1" d="M35.74,52.57a.94.94,0,0,1-.37-.07,1,1,0,0,1-.56-1.3L43.5,29.5a1,1,0,0,1,.93-.63h0a1,1,0,0,1,.93.63l8.57,21.64a1,1,0,1,1-1.86.74L44.43,32.57,36.67,51.94A1,1,0,0,1,35.74,52.57Z"/><path class="cls-1" d="M59.34,40.41h0a1,1,0,0,1-.92-.64l-14-36L30.32,39.69a1,1,0,0,1-.92.63h0a1,1,0,0,1-.92-.6l-12-28H.18v-2h16.9a1,1,0,0,1,.92.61L29.34,36.69,43.5.63A1,1,0,0,1,44.43,0h0a1,1,0,0,1,.93.64l14,36.11c2.66-6.29,10-23.6,10.51-24.95a3.2,3.2,0,0,1,2.92-2.08H86.67v2H72.81a1.23,1.23,0,0,0-1.06.8c-.65,1.68-11,26.24-11.49,27.28A1,1,0,0,1,59.34,40.41Z"/><path class="cls-1" d="M57.64,32.59l-1.83-.79L67.25,5.46a1,1,0,0,1,.92-.6h18.5v2H68.82Z"/><path class="cls-1" d="M54.9,25.94l-1.83-.8L63.88.6a1,1,0,0,1,.91-.6H86.67V2H65.44Z"/><path class="cls-1" d="M31.24,32.83,20,7.35H.3v-2H20.6a1,1,0,0,1,.92.59L33.07,32Z"/><path class="cls-1" d="M33.73,25.84,23.06,2H0V0H23.7a1,1,0,0,1,.92.59L35.56,25Z"/><path class="cls-1" d="M56.13,46.31a1,1,0,0,1-.93-.64L44.42,18l-11,27.66a1,1,0,0,1-1.3.56,1,1,0,0,1-.56-1.3l11.91-30a1,1,0,0,1,.93-.63h0a1,1,0,0,1,.93.64l11.7,30a1,1,0,0,1-.57,1.29A.92.92,0,0,1,56.13,46.31Z"/></g></g></svg>